<?xml version="1.0" standalone="no"?>
<!DOCTYPE svg PUBLIC "-//W3C//DTD SVG 20010904//EN"
 "http://www.w3.org/TR/2001/REC-SVG-20010904/DTD/svg10.dtd">
<svg version="1.0" xmlns="http://www.w3.org/2000/svg"
 width="100.000000pt" height="100.000000pt" viewBox="0 0 100.000000 100.000000"
 preserveAspectRatio="xMidYMid meet">
<metadata>
Created by potrace 1.14, written by Peter Selinger 2001-2017
</metadata>
<g transform="translate(0.000000,100.000000) scale(0.100000,-0.100000)"
fill="#000000" stroke="none">
<path d="M645 935 c-79 -28 -145 -124 -145 -210 0 -119 106 -225 225 -225 119
0 225 106 225 225 0 60 -22 110 -69 156 -66 67 -148 85 -236 54z"/>
<path d="M40 740 l0 -200 200 0 200 0 0 200 0 200 -200 0 -200 0 0 -200z"/>
<path d="M175 485 c-79 -28 -145 -124 -145 -210 0 -119 106 -225 225 -225 60
0 110 22 156 69 93 92 93 220 0 312 -66 67 -148 85 -236 54z"/>
<path d="M550 260 l0 -200 200 0 200 0 0 200 0 200 -200 0 -200 0 0 -200z"/>
</g>
</svg>
